<?xml version="1.0" encoding="utf-8"?>
<!-- Generator: Adobe Illustrator 21.1.0, SVG Export Plug-In . SVG Version: 6.00 Build 0)  -->
<svg version="1.1" id="Default" xmlns="http://www.w3.org/2000/svg" xmlns:xlink="http://www.w3.org/1999/xlink" x="0px" y="0px"
	 viewBox="0 0 1278 558" style="enable-background:new 0 0 1278 558;" xml:space="preserve">
<style type="text/css">
	.st0{fill:#313131;}
	.st1{fill:none;stroke:#313131;stroke-width:11;stroke-linecap:round;stroke-linejoin:round;}
</style>
<g>
	<path class="st0" d="M362.1,24.5c33,0,64.1,12.9,87.4,36.2l47.6,47.6c23.4,23.4,36.2,54.4,36.2,87.4c0,33-12.9,64.1-36.2,87.4
		l-83.3,83.3L247.3,533.1c-1.1,1.1-2.6,1.7-4.1,1.7c-1.6,0-3-0.6-4.1-1.7L24.8,318.9c-2.3-2.3-2.3-6,0-8.2L274.7,60.7
		C298.1,37.4,329.1,24.5,362.1,24.5 M362.1,13.5c-34.5,0-68.9,13.1-95.2,39.4C183.6,136.3,100.3,219.6,17,302.9
		c-6.6,6.6-6.6,17.2,0,23.8c71.4,71.4,142.8,142.8,214.2,214.2c3.3,3.3,7.6,4.9,11.9,4.9s8.6-1.6,11.9-4.9
		C338.3,457.6,421.7,374.3,505,291c52.6-52.6,52.6-137.8,0-190.4c-15.9-15.9-31.7-31.7-47.6-47.6C431.1,26.7,396.6,13.5,362.1,13.5
		L362.1,13.5z"/>
</g>
<g>
	<path class="st0" d="M375.2,350.6c-1.4,0-2.8-0.5-3.9-1.6l-19.9-19.9c-2.1-2.1-2.1-5.6,0-7.8c2.1-2.1,5.6-2.1,7.8,0l19.9,19.9
		c2.1,2.1,2.1,5.6,0,7.8C378,350.1,376.6,350.6,375.2,350.6z"/>
</g>
<g>
	<path class="st0" d="M406.7,270.3L406.7,270.3l-28.2,0c-3,0-5.5-2.5-5.5-5.5s2.5-5.5,5.5-5.5l0,0l28.2,0c3,0,5.5,2.5,5.5,5.5
		S409.8,270.3,406.7,270.3z"/>
</g>
<g>
	<path class="st0" d="M352.3,211.1c-1.4,0-2.8-0.5-3.9-1.6c-2.1-2.1-2.1-5.6,0-7.8l19.9-19.9c2.1-2.1,5.6-2.1,7.8,0
		c2.1,2.1,2.1,5.6,0,7.8l-19.9,19.9C355.1,210.6,353.7,211.1,352.3,211.1z"/>
</g>
<g>
	<path class="st0" d="M291.9,187.8L291.9,187.8c-3,0-5.5-2.5-5.5-5.5l0-28.2c0-3,2.5-5.5,5.5-5.5l0,0c3,0,5.5,2.5,5.5,5.5l0,28.2
		C297.4,185.4,294.9,187.8,291.9,187.8z"/>
</g>
<g>
	<polygon class="st0" points="177.6,337 164.3,350.3 207.6,393.6 220.9,380.3 177.6,337 	"/>
</g>
<g>
	<path class="st0" d="M292.7,215.2c13.2,0,25.7,5.2,35.2,14.7c12.6,12.5,17.6,30.3,13.4,47.5c-4.2,17.2-16.8,30.7-33.7,36
		c-24.6,7.8-43,16.5-59.6,28.3c-5.2,3.7-10.3,7.7-15.3,12.1c-0.9,0.8-1.9,1.6-2.8,2.5l-13.9-13.9l-14.2-14.2
		c0.7-0.8,1.5-1.6,2.2-2.5c4.4-5,8.5-10.2,12.2-15.4c12.9-18.1,20.3-38,27.5-57.2l0.7-1.9c0.1-0.2,0.1-0.4,0.2-0.6
		C251.1,229.4,270.4,215.2,292.7,215.2 M292.7,204.2c-25.4,0-50.2,15.7-58.7,43.2c-7.4,19.7-14.4,39-26.8,56.6
		c-3.6,5-7.4,9.8-11.5,14.5c-2.3,2.6-4.6,5.1-7,7.6c-0.9,1-3,1.7-1.4,3.3c0.8,0.8,1.5,1.5,2.3,2.3c6.2,6.2,12.4,12.4,18.5,18.5
		c6.2,6.2,12.3,12.3,18.5,18.5c0.8,0.8,1.5,1.5,2.3,2.3c0.4,0.4,0.8,0.6,1.1,0.6c1,0,1.5-1.8,2.3-2.5c2.5-2.4,5-4.7,7.5-7
		c4.6-4.1,9.4-7.9,14.4-11.4c17.5-12.4,36.3-20.4,56.6-26.7c43.9-13.8,57.4-69.3,24.8-101.8C323.4,209.8,308,204.2,292.7,204.2
		L292.7,204.2z"/>
</g>
<g>
	<path class="st0" d="M433.6,129.9c-1.4,0-2.8-0.5-3.9-1.6c-2.1-2.1-2.1-5.6,0-7.8L536.8,13.4c2.1-2.1,5.6-2.1,7.8,0
		c2.1,2.1,2.1,5.6,0,7.8L437.4,128.3C436.4,129.3,435,129.9,433.6,129.9z"/>
</g>
<g>
	<path class="st0" d="M433.6,101.7c6.1,0,11.7,2.4,16,6.6c8.8,8.8,8.8,23.2,0,32c-4.3,4.3-10,6.6-16,6.6c-6.1,0-11.7-2.4-16-6.6
		c-8.8-8.8-8.8-23.2,0-32C421.8,104.1,427.5,101.7,433.6,101.7 M433.6,90.7c-8.6,0-17.2,3.3-23.8,9.9c-13.1,13.1-13.1,34.5,0,47.6
		c6.6,6.6,15.2,9.9,23.8,9.9s17.2-3.3,23.8-9.9c13.1-13.1,13.1-34.5,0-47.6C450.8,94,442.2,90.7,433.6,90.7L433.6,90.7z"/>
</g>
<g>
	<path class="st0" d="M232.7,214.1c-1.4,0-2.8-0.5-3.9-1.6l-19.9-19.9c-2.1-2.1-2.1-5.6,0-7.8c2.1-2.1,5.6-2.1,7.8,0l19.9,19.9
		c2.1,2.1,2.1,5.6,0,7.8C235.5,213.5,234.1,214.1,232.7,214.1z"/>
</g>
<g>
	<path class="st0" d="M622,163.8h-15.3v42.9h-9.4v-42.9H582v-7.7H622V163.8z"/>
	<path class="st0" d="M618.7,175.8c4.1-3.8,9.1-5.7,14.9-5.7c2.1,0,4,0.3,5.6,1c1.7,0.7,3.1,1.6,4.2,2.9c1.1,1.2,2,2.7,2.6,4.4
		c0.6,1.7,0.9,3.6,0.9,5.6v22.7H643c-0.8,0-1.4-0.1-1.9-0.4c-0.4-0.2-0.8-0.7-1.1-1.5l-0.8-2.6c-0.9,0.8-1.8,1.5-2.7,2.2
		c-0.9,0.6-1.8,1.1-2.7,1.6c-0.9,0.4-1.9,0.7-3,1c-1.1,0.2-2.2,0.3-3.5,0.3c-1.5,0-2.9-0.2-4.2-0.6c-1.3-0.4-2.4-1-3.3-1.8
		c-0.9-0.8-1.7-1.8-2.2-3c-0.5-1.2-0.8-2.6-0.8-4.2c0-0.9,0.2-1.8,0.5-2.7c0.3-0.9,0.8-1.8,1.5-2.6c0.7-0.8,1.6-1.6,2.7-2.3
		c1.1-0.7,2.4-1.4,4-1.9c1.6-0.5,3.5-1,5.6-1.3c2.1-0.3,4.5-0.5,7.3-0.6V184c0-2.4-0.5-4.2-1.5-5.3c-1-1.2-2.5-1.7-4.4-1.7
		c-1.4,0-2.6,0.2-3.5,0.5c-0.9,0.3-1.7,0.7-2.4,1.1c-0.7,0.4-1.3,0.8-1.9,1.1c-0.6,0.3-1.2,0.5-1.9,0.5c-0.6,0-1.1-0.2-1.5-0.5
		s-0.8-0.7-1-1.1L618.7,175.8z M638.5,191.3c-2.5,0.1-4.6,0.3-6.3,0.6c-1.7,0.3-3.1,0.7-4.1,1.2c-1,0.5-1.8,1.1-2.2,1.7
		c-0.4,0.7-0.7,1.4-0.7,2.1c0,1.5,0.4,2.6,1.3,3.3c0.9,0.7,2.1,1,3.5,1c1.8,0,3.3-0.3,4.6-1c1.3-0.6,2.6-1.6,3.8-2.9V191.3z"/>
	<path class="st0" d="M686.5,172v3.2c0,1-0.6,1.7-1.9,1.9l-3.2,0.6c0.5,1.2,0.7,2.6,0.7,4.1c0,1.8-0.4,3.4-1.1,4.8s-1.7,2.7-3,3.7
		c-1.3,1-2.7,1.8-4.5,2.3c-1.7,0.5-3.6,0.8-5.5,0.8c-0.7,0-1.4,0-2-0.1c-0.7-0.1-1.3-0.2-1.9-0.3c-1.1,0.7-1.7,1.4-1.7,2.3
		c0,0.7,0.3,1.3,1,1.6c0.7,0.3,1.5,0.6,2.6,0.7c1.1,0.1,2.3,0.2,3.7,0.3c1.4,0,2.8,0.1,4.3,0.2c1.5,0.1,2.9,0.3,4.3,0.6
		c1.4,0.3,2.6,0.8,3.7,1.4c1.1,0.6,2,1.5,2.6,2.6s1,2.5,1,4.2c0,1.6-0.4,3.1-1.2,4.6s-1.9,2.8-3.4,4c-1.5,1.2-3.3,2.1-5.5,2.8
		c-2.2,0.7-4.6,1.1-7.4,1.1c-2.7,0-5.1-0.3-7.1-0.8c-2-0.5-3.7-1.2-5-2.1s-2.3-1.9-3-3c-0.7-1.1-1-2.3-1-3.6c0-1.7,0.5-3.1,1.5-4.2
		c1-1.1,2.4-2,4.2-2.7c-1-0.5-1.7-1.1-2.3-2c-0.6-0.8-0.8-1.9-0.8-3.2c0-0.5,0.1-1.1,0.3-1.7c0.2-0.6,0.5-1.1,0.9-1.7
		c0.4-0.6,0.9-1.1,1.5-1.6c0.6-0.5,1.3-1,2.1-1.3c-1.8-1-3.2-2.3-4.3-3.9c-1-1.6-1.6-3.5-1.6-5.7c0-1.8,0.4-3.4,1.1-4.8
		s1.7-2.7,3-3.7c1.3-1,2.8-1.8,4.5-2.3c1.7-0.5,3.6-0.8,5.7-0.8c1.5,0,3,0.2,4.3,0.5c1.4,0.3,2.6,0.8,3.7,1.4H686.5z M677.9,208.3
		c0-0.7-0.2-1.3-0.6-1.7c-0.4-0.4-1-0.8-1.7-1c-0.7-0.2-1.6-0.4-2.5-0.5c-1-0.1-2-0.2-3.1-0.3c-1.1-0.1-2.2-0.1-3.4-0.2
		c-1.2,0-2.3-0.1-3.4-0.3c-1,0.5-1.7,1.2-2.3,1.9c-0.6,0.7-0.9,1.6-0.9,2.5c0,0.6,0.2,1.2,0.5,1.8s0.8,1,1.5,1.4
		c0.7,0.4,1.6,0.7,2.7,0.9c1.1,0.2,2.4,0.3,4,0.3c1.6,0,3-0.1,4.2-0.4c1.2-0.2,2.1-0.6,2.9-1c0.8-0.4,1.3-0.9,1.7-1.5
		C677.8,209.6,677.9,209,677.9,208.3z M668.2,187.8c1.1,0,2-0.1,2.8-0.4c0.8-0.3,1.5-0.7,2-1.2c0.5-0.5,0.9-1.1,1.2-1.9
		c0.3-0.7,0.4-1.5,0.4-2.4c0-1.8-0.5-3.2-1.6-4.2c-1.1-1-2.7-1.6-4.8-1.6c-2.1,0-3.7,0.5-4.8,1.6c-1.1,1-1.6,2.4-1.6,4.2
		c0,0.8,0.1,1.6,0.4,2.3c0.3,0.7,0.7,1.3,1.2,1.9c0.5,0.5,1.2,0.9,2,1.2C666.2,187.7,667.1,187.8,668.2,187.8z"/>
	<path class="st0" d="M751.4,206.7h-7.3c-0.8,0-1.5-0.2-2-0.6c-0.5-0.4-0.9-0.9-1.2-1.5l-3.8-10.3h-21l-3.8,10.3
		c-0.2,0.5-0.5,1-1.1,1.5c-0.5,0.4-1.2,0.7-2,0.7H702l19.9-50.6h9.6L751.4,206.7z M734.8,187.6l-6.2-16.8c-0.3-0.7-0.6-1.6-0.9-2.7
		c-0.3-1-0.7-2.1-1-3.3c-0.3,1.2-0.6,2.3-0.9,3.3c-0.3,1-0.6,1.9-0.9,2.7l-6.1,16.8H734.8z"/>
	<path class="st0" d="M777.2,177.8c-0.2,0.4-0.5,0.6-0.7,0.8c-0.3,0.2-0.6,0.2-1,0.2c-0.4,0-0.9-0.1-1.3-0.4c-0.5-0.2-1-0.5-1.7-0.8
		c-0.6-0.3-1.3-0.6-2.2-0.8c-0.8-0.2-1.8-0.4-2.9-0.4c-1.7,0-3,0.4-4,1.1c-1,0.7-1.5,1.7-1.5,2.8c0,0.8,0.2,1.4,0.8,1.9
		c0.5,0.5,1.2,1,2,1.4c0.8,0.4,1.8,0.8,2.8,1.1c1,0.3,2.1,0.7,3.2,1c1.1,0.4,2.2,0.8,3.2,1.3c1,0.5,2,1.1,2.8,1.8s1.5,1.6,2,2.6
		c0.5,1,0.8,2.3,0.8,3.7c0,1.7-0.3,3.3-0.9,4.8c-0.6,1.5-1.5,2.7-2.7,3.8c-1.2,1.1-2.7,1.9-4.5,2.5s-3.8,0.9-6.2,0.9
		c-1.2,0-2.4-0.1-3.6-0.3c-1.2-0.2-2.3-0.5-3.4-0.9c-1.1-0.4-2.1-0.9-3-1.4c-0.9-0.5-1.7-1.1-2.4-1.8l2-3.3c0.3-0.4,0.6-0.7,0.9-0.9
		s0.8-0.3,1.3-0.3c0.5,0,1,0.2,1.5,0.5c0.5,0.3,1,0.6,1.7,1c0.6,0.4,1.4,0.7,2.2,1c0.9,0.3,1.9,0.5,3.2,0.5c1,0,1.9-0.1,2.6-0.4
		c0.7-0.2,1.3-0.6,1.8-1c0.5-0.4,0.8-0.9,1-1.4c0.2-0.5,0.3-1.1,0.3-1.6c0-0.8-0.3-1.5-0.8-2.1c-0.5-0.5-1.2-1-2-1.4
		c-0.8-0.4-1.8-0.8-2.8-1.1c-1.1-0.3-2.1-0.7-3.3-1c-1.1-0.4-2.2-0.8-3.3-1.3c-1.1-0.5-2-1.1-2.8-1.9c-0.8-0.8-1.5-1.7-2-2.8
		c-0.5-1.1-0.8-2.5-0.8-4.1c0-1.5,0.3-2.9,0.9-4.2c0.6-1.3,1.4-2.5,2.6-3.5c1.1-1,2.5-1.8,4.2-2.4c1.7-0.6,3.6-0.9,5.9-0.9
		c2.5,0,4.7,0.4,6.8,1.2c2,0.8,3.7,1.9,5.1,3.2L777.2,177.8z"/>
	<path class="st0" d="M808,177.8c-0.2,0.4-0.5,0.6-0.7,0.8c-0.3,0.2-0.6,0.2-1,0.2c-0.4,0-0.9-0.1-1.3-0.4c-0.5-0.2-1-0.5-1.7-0.8
		c-0.6-0.3-1.3-0.6-2.2-0.8c-0.8-0.2-1.8-0.4-2.9-0.4c-1.7,0-3,0.4-4,1.1c-1,0.7-1.5,1.7-1.5,2.8c0,0.8,0.2,1.4,0.8,1.9
		c0.5,0.5,1.2,1,2,1.4c0.8,0.4,1.8,0.8,2.8,1.1c1,0.3,2.1,0.7,3.2,1c1.1,0.4,2.2,0.8,3.2,1.3c1,0.5,2,1.1,2.8,1.8s1.5,1.6,2,2.6
		c0.5,1,0.8,2.3,0.8,3.7c0,1.7-0.3,3.3-0.9,4.8c-0.6,1.5-1.5,2.7-2.7,3.8c-1.2,1.1-2.7,1.9-4.5,2.5s-3.8,0.9-6.2,0.9
		c-1.2,0-2.4-0.1-3.6-0.3c-1.2-0.2-2.3-0.5-3.4-0.9c-1.1-0.4-2.1-0.9-3-1.4c-0.9-0.5-1.7-1.1-2.4-1.8l2-3.3c0.3-0.4,0.6-0.7,0.9-0.9
		s0.8-0.3,1.3-0.3c0.5,0,1,0.2,1.5,0.5c0.5,0.3,1,0.6,1.7,1c0.6,0.4,1.4,0.7,2.2,1c0.9,0.3,1.9,0.5,3.2,0.5c1,0,1.9-0.1,2.6-0.4
		c0.7-0.2,1.3-0.6,1.8-1c0.5-0.4,0.8-0.9,1-1.4c0.2-0.5,0.3-1.1,0.3-1.6c0-0.8-0.3-1.5-0.8-2.1c-0.5-0.5-1.2-1-2-1.4
		c-0.8-0.4-1.8-0.8-2.8-1.1c-1.1-0.3-2.1-0.7-3.3-1c-1.1-0.4-2.2-0.8-3.3-1.3c-1.1-0.5-2-1.1-2.8-1.9c-0.8-0.8-1.5-1.7-2-2.8
		c-0.5-1.1-0.8-2.5-0.8-4.1c0-1.5,0.3-2.9,0.9-4.2c0.6-1.3,1.4-2.5,2.6-3.5c1.1-1,2.5-1.8,4.2-2.4c1.7-0.6,3.6-0.9,5.9-0.9
		c2.5,0,4.7,0.4,6.8,1.2c2,0.8,3.7,1.9,5.1,3.2L808,177.8z"/>
	<path class="st0" d="M832.7,170.2c2.7,0,5.1,0.4,7.3,1.3c2.2,0.9,4,2.1,5.6,3.7c1.6,1.6,2.7,3.5,3.6,5.8c0.8,2.3,1.3,4.8,1.3,7.7
		c0,2.8-0.4,5.4-1.3,7.7c-0.8,2.3-2,4.2-3.6,5.8s-3.4,2.8-5.6,3.7c-2.2,0.9-4.6,1.3-7.3,1.3c-2.7,0-5.1-0.4-7.3-1.3
		c-2.2-0.9-4.1-2.1-5.6-3.7c-1.6-1.6-2.8-3.6-3.6-5.8c-0.9-2.3-1.3-4.9-1.3-7.7c0-2.8,0.4-5.4,1.3-7.7c0.9-2.3,2.1-4.2,3.6-5.8
		c1.6-1.6,3.4-2.8,5.6-3.7C827.6,170.6,830,170.2,832.7,170.2z M832.7,200.6c3,0,5.2-1,6.6-3s2.2-4.9,2.2-8.8c0-3.9-0.7-6.8-2.2-8.9
		c-1.4-2-3.6-3-6.6-3c-3,0-5.3,1-6.7,3.1c-1.5,2-2.2,5-2.2,8.8s0.7,6.8,2.2,8.8C827.4,199.5,829.7,200.6,832.7,200.6z"/>
	<path class="st0" d="M882.8,178.4c-0.3,0.3-0.5,0.6-0.8,0.8c-0.2,0.2-0.6,0.3-1.1,0.3c-0.4,0-0.9-0.1-1.3-0.4
		c-0.4-0.3-0.9-0.6-1.5-0.9c-0.6-0.3-1.3-0.6-2.1-0.9c-0.8-0.3-1.8-0.4-3-0.4c-1.5,0-2.8,0.3-4,0.8c-1.1,0.5-2.1,1.3-2.9,2.4
		c-0.8,1-1.3,2.3-1.7,3.7c-0.4,1.5-0.6,3.1-0.6,5c0,1.9,0.2,3.6,0.6,5.1c0.4,1.5,1,2.7,1.8,3.8c0.8,1,1.7,1.8,2.8,2.3
		c1.1,0.5,2.3,0.8,3.7,0.8c1.4,0,2.5-0.2,3.3-0.5c0.9-0.3,1.6-0.7,2.2-1.1c0.6-0.4,1.1-0.8,1.5-1.1c0.4-0.3,0.9-0.5,1.5-0.5
		c0.7,0,1.2,0.3,1.6,0.8l2.5,3.1c-1,1.1-2,2.1-3.1,2.8c-1.1,0.8-2.3,1.4-3.5,1.8c-1.2,0.5-2.4,0.8-3.7,1c-1.3,0.2-2.5,0.3-3.8,0.3
		c-2.2,0-4.3-0.4-6.3-1.2c-2-0.8-3.7-2-5.1-3.6c-1.5-1.6-2.6-3.5-3.5-5.8c-0.9-2.3-1.3-4.9-1.3-7.9c0-2.6,0.4-5.1,1.1-7.3
		c0.8-2.3,1.9-4.2,3.3-5.8c1.5-1.6,3.3-2.9,5.5-3.9s4.7-1.4,7.5-1.4c2.7,0,5,0.4,7.1,1.3c2,0.9,3.8,2.1,5.4,3.7L882.8,178.4z"/>
	<path class="st0" d="M900.9,160.3c0,0.7-0.2,1.4-0.5,2.1c-0.3,0.7-0.7,1.2-1.2,1.7c-0.5,0.5-1.1,0.9-1.8,1.2
		c-0.7,0.3-1.4,0.4-2.2,0.4c-0.7,0-1.5-0.1-2.1-0.4c-0.7-0.3-1.2-0.7-1.7-1.2c-0.5-0.5-0.9-1.1-1.2-1.7c-0.3-0.7-0.4-1.4-0.4-2.1
		c0-0.8,0.1-1.5,0.4-2.2c0.3-0.7,0.7-1.3,1.2-1.8c0.5-0.5,1.1-0.9,1.7-1.2c0.7-0.3,1.4-0.4,2.1-0.4c0.8,0,1.5,0.1,2.2,0.4
		c0.7,0.3,1.3,0.7,1.8,1.2c0.5,0.5,0.9,1.1,1.2,1.8S900.9,159.5,900.9,160.3z M899.7,170.8v35.9h-8.7v-35.9H899.7z"/>
	<path class="st0" d="M907.7,175.8c4.1-3.8,9.1-5.7,14.9-5.7c2.1,0,4,0.3,5.6,1c1.7,0.7,3.1,1.6,4.2,2.9c1.1,1.2,2,2.7,2.6,4.4
		c0.6,1.7,0.9,3.6,0.9,5.6v22.7H932c-0.8,0-1.4-0.1-1.9-0.4c-0.4-0.2-0.8-0.7-1.1-1.5l-0.8-2.6c-0.9,0.8-1.8,1.5-2.7,2.2
		c-0.9,0.6-1.8,1.1-2.7,1.6c-0.9,0.4-1.9,0.7-3,1c-1.1,0.2-2.2,0.3-3.5,0.3c-1.5,0-2.9-0.2-4.2-0.6c-1.3-0.4-2.4-1-3.3-1.8
		c-0.9-0.8-1.7-1.8-2.2-3c-0.5-1.2-0.8-2.6-0.8-4.2c0-0.9,0.2-1.8,0.5-2.7c0.3-0.9,0.8-1.8,1.5-2.6c0.7-0.8,1.6-1.6,2.7-2.3
		c1.1-0.7,2.4-1.4,4-1.9c1.6-0.5,3.5-1,5.6-1.3c2.1-0.3,4.5-0.5,7.3-0.6V184c0-2.4-0.5-4.2-1.5-5.3c-1-1.2-2.5-1.7-4.4-1.7
		c-1.4,0-2.6,0.2-3.5,0.5c-0.9,0.3-1.7,0.7-2.4,1.1c-0.7,0.4-1.3,0.8-1.9,1.1c-0.6,0.3-1.2,0.5-1.9,0.5c-0.6,0-1.1-0.2-1.5-0.5
		s-0.8-0.7-1-1.1L907.7,175.8z M927.5,191.3c-2.5,0.1-4.6,0.3-6.3,0.6c-1.7,0.3-3.1,0.7-4.1,1.2c-1,0.5-1.8,1.1-2.2,1.7
		c-0.4,0.7-0.7,1.4-0.7,2.1c0,1.5,0.4,2.6,1.3,3.3c0.9,0.7,2.1,1,3.5,1c1.8,0,3.3-0.3,4.6-1c1.3-0.6,2.6-1.6,3.8-2.9V191.3z"/>
	<path class="st0" d="M979.8,206.7h-8.6v-29.4h-16.7v19.5c0,1.1,0.3,2,0.8,2.6c0.5,0.6,1.3,0.9,2.3,0.9c0.5,0,1-0.1,1.3-0.2
		c0.4-0.1,0.7-0.3,0.9-0.4c0.3-0.1,0.5-0.3,0.7-0.4c0.2-0.1,0.4-0.2,0.6-0.2c0.3,0,0.5,0.1,0.6,0.2c0.2,0.1,0.3,0.3,0.5,0.6l2.6,4.2
		c-1.3,1-2.7,1.8-4.3,2.4c-1.6,0.5-3.3,0.8-5.1,0.8c-3.1,0-5.5-0.9-7.2-2.6c-1.7-1.8-2.5-4.2-2.5-7.3v-20.1h-3.7
		c-0.5,0-0.9-0.2-1.2-0.5c-0.3-0.3-0.5-0.8-0.5-1.4V172l5.8-1l1.8-9.8c0.1-0.5,0.3-0.8,0.7-1.1c0.3-0.3,0.7-0.4,1.3-0.4h4.5v11.3
		h25.3V206.7z M981.3,160.2c0,0.7-0.2,1.5-0.5,2.1s-0.7,1.2-1.2,1.7c-0.5,0.5-1.1,0.9-1.8,1.2c-0.7,0.3-1.4,0.4-2.2,0.4
		c-0.7,0-1.4-0.1-2.1-0.4c-0.7-0.3-1.2-0.7-1.7-1.2c-0.5-0.5-0.9-1.1-1.2-1.7c-0.3-0.7-0.4-1.4-0.4-2.1c0-0.8,0.1-1.5,0.4-2.2
		c0.3-0.7,0.7-1.2,1.2-1.8c0.5-0.5,1.1-0.9,1.7-1.2c0.7-0.3,1.4-0.4,2.1-0.4c0.8,0,1.5,0.1,2.2,0.4c0.7,0.3,1.3,0.7,1.8,1.2
		c0.5,0.5,0.9,1.1,1.2,1.8S981.3,159.4,981.3,160.2z"/>
	<path class="st0" d="M1004.5,170.2c2.7,0,5.1,0.4,7.3,1.3c2.2,0.9,4,2.1,5.6,3.7c1.6,1.6,2.7,3.5,3.6,5.8c0.8,2.3,1.3,4.8,1.3,7.7
		c0,2.8-0.4,5.4-1.3,7.7c-0.8,2.3-2,4.2-3.6,5.8s-3.4,2.8-5.6,3.7c-2.2,0.9-4.6,1.3-7.3,1.3c-2.7,0-5.1-0.4-7.3-1.3
		c-2.2-0.9-4.1-2.1-5.6-3.7c-1.6-1.6-2.8-3.6-3.6-5.8c-0.9-2.3-1.3-4.9-1.3-7.7c0-2.8,0.4-5.4,1.3-7.7c0.9-2.3,2.1-4.2,3.6-5.8
		c1.6-1.6,3.4-2.8,5.6-3.7C999.4,170.6,1001.8,170.2,1004.5,170.2z M1004.5,200.6c3,0,5.2-1,6.6-3s2.2-4.9,2.2-8.8
		c0-3.9-0.7-6.8-2.2-8.9c-1.4-2-3.6-3-6.6-3c-3,0-5.3,1-6.7,3.1c-1.5,2-2.2,5-2.2,8.8s0.7,6.8,2.2,8.8
		C999.2,199.5,1001.5,200.6,1004.5,200.6z"/>
	<path class="st0" d="M1036.9,175.2c0.7-0.7,1.5-1.4,2.3-2c0.8-0.6,1.7-1.1,2.6-1.6c0.9-0.4,1.9-0.8,2.9-1s2.1-0.4,3.4-0.4
		c2,0,3.7,0.3,5.2,1c1.5,0.7,2.8,1.6,3.8,2.8s1.8,2.6,2.3,4.3c0.5,1.7,0.8,3.5,0.8,5.5v22.9h-8.6v-22.9c0-2.2-0.5-3.9-1.5-5.1
		c-1-1.2-2.5-1.8-4.6-1.8c-1.5,0-2.9,0.3-4.2,1c-1.3,0.7-2.5,1.6-3.7,2.8v26h-8.6v-35.9h5.3c1.1,0,1.9,0.5,2.2,1.6L1036.9,175.2z"/>
	<path class="st0" d="M1128.4,181.3v20.5c-2.6,1.9-5.3,3.3-8.2,4.1c-2.9,0.9-6,1.3-9.3,1.3c-4.1,0-7.9-0.6-11.2-1.9
		c-3.3-1.3-6.2-3.1-8.6-5.4c-2.4-2.3-4.2-5-5.5-8.2c-1.3-3.2-1.9-6.6-1.9-10.4c0-3.8,0.6-7.3,1.9-10.5c1.2-3.2,3-5.9,5.3-8.2
		c2.3-2.3,5-4.1,8.3-5.3c3.2-1.3,6.9-1.9,10.9-1.9c2.1,0,4,0.2,5.8,0.5c1.8,0.3,3.4,0.8,5,1.3c1.5,0.6,2.9,1.3,4.2,2.1
		c1.3,0.8,2.4,1.7,3.5,2.7l-2.7,4.3c-0.4,0.7-1,1.1-1.6,1.2c-0.7,0.2-1.4,0-2.2-0.5c-0.8-0.4-1.5-0.9-2.3-1.3
		c-0.8-0.4-1.6-0.8-2.6-1.2c-0.9-0.3-2-0.6-3.2-0.8c-1.2-0.2-2.5-0.3-4.1-0.3c-2.5,0-4.8,0.4-6.8,1.3c-2,0.8-3.7,2-5.2,3.6
		c-1.4,1.6-2.5,3.4-3.3,5.6s-1.2,4.6-1.2,7.3c0,2.9,0.4,5.5,1.2,7.8c0.8,2.3,2,4.2,3.5,5.8c1.5,1.6,3.3,2.8,5.4,3.6
		c2.1,0.8,4.5,1.2,7.1,1.2c1.9,0,3.5-0.2,5-0.6c1.5-0.4,2.9-0.9,4.3-1.6v-9.2h-6.4c-0.6,0-1.1-0.2-1.4-0.5c-0.3-0.3-0.5-0.8-0.5-1.2
		v-5.3H1128.4z"/>
	<path class="st0" d="M1135.2,175.8c4.1-3.8,9.1-5.7,14.9-5.7c2.1,0,4,0.3,5.6,1c1.7,0.7,3.1,1.6,4.2,2.9c1.1,1.2,2,2.7,2.6,4.4
		c0.6,1.7,0.9,3.6,0.9,5.6v22.7h-3.9c-0.8,0-1.4-0.1-1.9-0.4c-0.4-0.2-0.8-0.7-1.1-1.5l-0.8-2.6c-0.9,0.8-1.8,1.5-2.7,2.2
		c-0.9,0.6-1.8,1.1-2.7,1.6c-0.9,0.4-1.9,0.7-3,1c-1.1,0.2-2.2,0.3-3.5,0.3c-1.5,0-2.9-0.2-4.2-0.6c-1.3-0.4-2.4-1-3.3-1.8
		c-0.9-0.8-1.7-1.8-2.2-3c-0.5-1.2-0.8-2.6-0.8-4.2c0-0.9,0.2-1.8,0.5-2.7c0.3-0.9,0.8-1.8,1.5-2.6c0.7-0.8,1.6-1.6,2.7-2.3
		c1.1-0.7,2.4-1.4,4-1.9c1.6-0.5,3.5-1,5.6-1.3c2.1-0.3,4.5-0.5,7.3-0.6V184c0-2.4-0.5-4.2-1.5-5.3c-1-1.2-2.5-1.7-4.4-1.7
		c-1.4,0-2.6,0.2-3.5,0.5c-0.9,0.3-1.7,0.7-2.4,1.1c-0.7,0.4-1.3,0.8-1.9,1.1c-0.6,0.3-1.2,0.5-1.9,0.5c-0.6,0-1.1-0.2-1.5-0.5
		s-0.8-0.7-1-1.1L1135.2,175.8z M1155,191.3c-2.5,0.1-4.6,0.3-6.3,0.6c-1.7,0.3-3.1,0.7-4.1,1.2c-1,0.5-1.8,1.1-2.2,1.7
		c-0.4,0.7-0.7,1.4-0.7,2.1c0,1.5,0.4,2.6,1.3,3.3c0.9,0.7,2.1,1,3.5,1c1.8,0,3.3-0.3,4.6-1c1.3-0.6,2.6-1.6,3.8-2.9V191.3z"/>
	<path class="st0" d="M1171.6,206.7v-35.9h5.3c1.1,0,1.9,0.5,2.2,1.6l0.6,2.7c0.6-0.7,1.3-1.3,2-1.9c0.7-0.6,1.4-1.1,2.2-1.5
		s1.6-0.8,2.5-1c0.9-0.2,1.9-0.4,3-0.4c2.3,0,4.1,0.6,5.6,1.8c1.5,1.2,2.5,2.9,3.3,4.9c0.6-1.2,1.3-2.2,2.1-3.1
		c0.8-0.9,1.8-1.5,2.8-2.1c1-0.5,2.1-0.9,3.2-1.2c1.1-0.3,2.3-0.4,3.4-0.4c2,0,3.7,0.3,5.3,0.9c1.5,0.6,2.8,1.5,3.9,2.7
		c1.1,1.2,1.8,2.6,2.4,4.3c0.5,1.7,0.8,3.6,0.8,5.8v22.9h-8.6v-22.9c0-2.3-0.5-4-1.5-5.2c-1-1.2-2.5-1.7-4.4-1.7
		c-0.9,0-1.7,0.2-2.5,0.5c-0.8,0.3-1.4,0.7-2,1.3c-0.6,0.6-1,1.3-1.3,2.2c-0.3,0.9-0.5,1.9-0.5,3v22.9h-8.7v-22.9
		c0-2.4-0.5-4.2-1.5-5.2c-1-1.1-2.4-1.6-4.3-1.6c-1.3,0-2.4,0.3-3.5,0.9s-2.1,1.5-3,2.5v26.3H1171.6z"/>
	<path class="st0" d="M1236.8,189.8c0.1,1.8,0.5,3.4,1,4.8s1.2,2.4,2,3.3c0.8,0.9,1.8,1.5,3,2c1.2,0.4,2.4,0.6,3.8,0.6
		s2.6-0.2,3.6-0.5c1-0.3,1.9-0.7,2.7-1.1c0.8-0.4,1.4-0.8,2-1.1c0.6-0.3,1.1-0.5,1.7-0.5c0.7,0,1.3,0.3,1.6,0.8l2.5,3.1
		c-1,1.1-2,2.1-3.2,2.8c-1.2,0.8-2.4,1.4-3.7,1.8c-1.3,0.5-2.6,0.8-4,1c-1.3,0.2-2.6,0.3-3.9,0.3c-2.5,0-4.8-0.4-7-1.2
		c-2.1-0.8-4-2.1-5.6-3.7c-1.6-1.6-2.8-3.6-3.7-6c-0.9-2.4-1.4-5.2-1.4-8.3c0-2.4,0.4-4.8,1.2-6.9c0.8-2.2,1.9-4,3.4-5.6
		c1.5-1.6,3.3-2.9,5.4-3.8c2.1-0.9,4.5-1.4,7.2-1.4c2.3,0,4.4,0.4,6.3,1.1c1.9,0.7,3.6,1.8,4.9,3.2c1.4,1.4,2.5,3.1,3.2,5.1
		c0.8,2,1.2,4.3,1.2,6.9c0,1.3-0.1,2.2-0.4,2.6c-0.3,0.5-0.8,0.7-1.6,0.7H1236.8z M1253.3,184.6c0-1.1-0.2-2.2-0.5-3.2
		c-0.3-1-0.8-1.9-1.4-2.6c-0.6-0.7-1.4-1.3-2.4-1.8c-1-0.4-2.1-0.6-3.4-0.6c-2.5,0-4.5,0.7-5.9,2.1c-1.4,1.4-2.4,3.4-2.7,6.1H1253.3
		z"/>
	<path class="st0" d="M612.9,267.7c-1,0.7-1.9,1.3-2.9,1.8c-1,0.5-2.1,1-3.2,1.3c-1.1,0.4-2.3,0.6-3.6,0.8c-1.3,0.2-2.6,0.3-4.1,0.3
		c-2.3,0-4.4-0.4-6.2-1.2s-3.4-1.9-4.7-3.4c-1.3-1.5-2.3-3.2-3-5.3c-0.7-2-1-4.3-1-6.8c0-3.4,0.5-6.4,1.5-9.2c1-2.8,2.4-5.1,4.2-7.1
		c1.8-2,3.9-3.5,6.4-4.5c2.5-1.1,5.2-1.6,8.1-1.6c1.4,0,2.6,0.1,3.8,0.3c1.1,0.2,2.2,0.5,3.1,0.9c0.9,0.4,1.8,0.9,2.6,1.5
		c0.8,0.6,1.5,1.2,2.2,2l-0.8,1.1c-0.3,0.5-0.7,0.5-1.1,0.3c-0.3-0.1-0.6-0.4-1-0.8s-1-0.8-1.8-1.2c-0.7-0.4-1.7-0.8-2.8-1.2
		s-2.6-0.5-4.3-0.5c-2.5,0-4.9,0.5-7,1.4c-2.1,0.9-3.9,2.3-5.4,4s-2.7,3.8-3.5,6.3c-0.8,2.5-1.3,5.3-1.3,8.3c0,2.2,0.3,4.2,0.9,6
		c0.6,1.8,1.4,3.3,2.5,4.6c1.1,1.3,2.4,2.2,4,2.9c1.5,0.7,3.3,1,5.2,1c1.2,0,2.3-0.1,3.3-0.2c1-0.1,2-0.3,2.8-0.6
		c0.9-0.3,1.7-0.6,2.5-1s1.6-0.8,2.4-1.3l1.3-10.4h-6.7c-0.2,0-0.4-0.1-0.5-0.2s-0.2-0.3-0.1-0.4l0.2-1.5h9.8L612.9,267.7z"/>
	<path class="st0" d="M639.6,266.5c-0.9,0.9-1.7,1.7-2.6,2.4c-0.8,0.7-1.7,1.2-2.5,1.7c-0.9,0.4-1.7,0.8-2.7,1s-1.9,0.3-2.9,0.3
		c-1.5,0-2.8-0.2-4-0.7c-1.2-0.5-2.1-1.2-2.9-2.1c-0.8-0.9-1.4-2-1.8-3.3s-0.6-2.8-0.6-4.4c0-1.4,0.1-2.7,0.4-4.1
		c0.3-1.4,0.7-2.7,1.2-3.9c0.5-1.3,1.2-2.4,2-3.5c0.8-1.1,1.7-2.1,2.7-2.9c1-0.8,2.1-1.4,3.3-1.9c1.2-0.5,2.5-0.7,4-0.7
		c1.3,0,2.4,0.2,3.3,0.6c0.9,0.4,1.6,0.8,2.2,1.4c0.6,0.5,1,1.1,1.2,1.8c0.3,0.6,0.4,1.2,0.4,1.8c0,0.7-0.1,1.4-0.3,2.1
		c-0.2,0.7-0.5,1.3-1.1,1.9c-0.5,0.6-1.2,1.2-2.1,1.7c-0.9,0.5-2,1-3.3,1.4c-1.3,0.4-2.9,0.8-4.8,1.2c-1.9,0.4-4.1,0.7-6.6,0.9
		c0,0.4-0.1,0.7-0.1,1.1c0,0.4,0,0.7,0,1.1c0,2.7,0.6,4.8,1.8,6.3c1.2,1.5,3,2.3,5.5,2.3c1,0,1.8-0.1,2.6-0.3
		c0.8-0.2,1.4-0.5,2.1-0.8c0.6-0.3,1.1-0.7,1.6-1c0.5-0.4,0.9-0.7,1.2-1c0.4-0.3,0.7-0.6,0.9-0.8c0.3-0.2,0.5-0.3,0.7-0.3
		c0.2,0,0.4,0.1,0.6,0.3L639.6,266.5z M633,246.1c-1.4,0-2.7,0.3-3.9,0.9c-1.2,0.6-2.2,1.4-3.1,2.4c-0.9,1-1.6,2.2-2.2,3.6
		c-0.6,1.3-1,2.7-1.3,4.2c2.3-0.3,4.3-0.5,5.9-0.9c1.7-0.3,3.1-0.7,4.2-1.1c1.2-0.4,2.1-0.8,2.8-1.2c0.7-0.4,1.3-0.9,1.7-1.3
		s0.6-0.9,0.8-1.4c0.1-0.5,0.2-1,0.2-1.5c0-0.4-0.1-0.8-0.3-1.2s-0.5-0.8-0.9-1.2c-0.4-0.4-0.9-0.7-1.6-0.9
		C634.7,246.2,634,246.1,633,246.1z"/>
	<path class="st0" d="M646.9,267c0-0.1,0-0.2,0-0.4c0-0.2,0-0.4,0.1-0.7c0-0.3,0.1-0.7,0.1-1.3c0.1-0.5,0.1-1.2,0.2-2l1.8-15.3h-3.5
		c-0.2,0-0.3-0.1-0.4-0.2c-0.1-0.1-0.1-0.3-0.1-0.5l0.1-1l4.2-0.3l1.8-9.6c0-0.2,0.1-0.3,0.2-0.4c0.1-0.1,0.3-0.2,0.5-0.2h1.2
		l-1.3,10.3h7.8l-0.2,1.9h-7.8l-1.9,15.2c-0.1,0.7-0.2,1.3-0.2,1.8c-0.1,0.5-0.1,0.9-0.1,1.1s0,0.5-0.1,0.7s0,0.3,0,0.3
		c0,1.2,0.3,2,0.8,2.5c0.5,0.5,1.3,0.8,2.1,0.8c0.6,0,1.1-0.1,1.6-0.3s0.9-0.4,1.2-0.6c0.3-0.2,0.6-0.4,0.8-0.6
		c0.2-0.2,0.4-0.3,0.5-0.3c0.2,0,0.3,0.1,0.4,0.3l0.5,1.1c-0.7,0.8-1.6,1.4-2.6,1.8s-2.1,0.7-3.1,0.7c-1.5,0-2.6-0.4-3.5-1.2
		C647.3,269.9,646.9,268.6,646.9,267z"/>
	<path class="st0" d="M680.8,271.5h-2.7l4.7-38.2h2.7L680.8,271.5z"/>
	<path class="st0" d="M694.5,253.3c0.7-1.4,1.5-2.7,2.4-3.8c0.9-1.1,1.8-2.1,2.8-2.8c1-0.8,2-1.4,3.1-1.8c1-0.4,2.1-0.6,3.2-0.6
		c1.2,0,2.1,0.2,3,0.7c0.8,0.5,1.5,1.1,2,2c0.5,0.9,0.8,1.9,1,3.2c0.2,1.3,0.1,2.7-0.1,4.3l-2,17.2h-2.5l2-17.2
		c0.3-2.6,0.1-4.5-0.5-5.9c-0.6-1.4-1.9-2.1-3.6-2.1c-1,0-2,0.3-3,0.8c-1,0.5-2,1.2-3,2.2c-1,0.9-1.9,2.1-2.7,3.4
		c-0.8,1.3-1.6,2.8-2.2,4.5l-1.6,14.2H690l3.2-26.9h1.2c0.6,0,0.9,0.3,0.9,1L694.5,253.3z"/>
	<path class="st0" d="M734.5,247.9c-0.1,0.3-0.3,0.4-0.6,0.4c-0.2,0-0.4-0.1-0.7-0.3c-0.3-0.2-0.6-0.5-1.1-0.8
		c-0.4-0.3-1-0.5-1.7-0.8c-0.7-0.2-1.5-0.3-2.5-0.3c-0.9,0-1.8,0.2-2.6,0.5c-0.8,0.3-1.5,0.7-2.1,1.2c-0.6,0.5-1.1,1.1-1.4,1.8
		c-0.4,0.7-0.5,1.4-0.5,2.1c0,0.7,0.2,1.4,0.5,1.9c0.3,0.5,0.8,0.9,1.4,1.3s1.2,0.7,1.9,1s1.4,0.5,2.2,0.8c0.8,0.3,1.5,0.6,2.2,0.9
		s1.4,0.7,1.9,1.2c0.6,0.5,1,1,1.4,1.7c0.3,0.7,0.5,1.5,0.5,2.4c0,1.2-0.2,2.3-0.7,3.3s-1.1,2-2,2.9c-0.9,0.8-1.9,1.5-3.1,2
		c-1.2,0.5-2.5,0.8-4,0.8c-1.7,0-3.2-0.3-4.4-0.9c-1.2-0.6-2.2-1.4-3-2.4l0.6-0.9c0.2-0.3,0.4-0.4,0.7-0.4c0.2,0,0.4,0.1,0.7,0.4
		c0.3,0.3,0.6,0.6,1.1,1c0.5,0.4,1.1,0.7,1.8,1c0.7,0.3,1.7,0.4,2.8,0.4c1.1,0,2.1-0.2,2.9-0.5s1.6-0.8,2.2-1.4
		c0.6-0.6,1.1-1.3,1.4-2.1c0.3-0.8,0.5-1.7,0.5-2.6c0-0.8-0.2-1.5-0.5-2c-0.3-0.5-0.8-1-1.4-1.4c-0.6-0.4-1.2-0.7-1.9-1
		c-0.7-0.3-1.4-0.5-2.2-0.8s-1.5-0.5-2.2-0.9c-0.7-0.3-1.3-0.7-1.9-1.1c-0.6-0.4-1-1-1.4-1.6c-0.3-0.6-0.5-1.4-0.5-2.4
		c0-1,0.2-2,0.7-3c0.4-1,1.1-1.8,1.9-2.6c0.8-0.7,1.8-1.3,2.9-1.8c1.1-0.4,2.4-0.7,3.7-0.7c1.5,0,2.8,0.2,3.9,0.7
		c1.1,0.5,2.1,1.2,3,2.1L734.5,247.9z"/>
	<path class="st0" d="M743.6,254c0.7-1.5,1.5-2.8,2.4-4c0.9-1.2,1.8-2.2,2.8-3.1c1-0.9,2-1.5,3.1-2c1.1-0.5,2.1-0.7,3.2-0.7
		c1.2,0,2.2,0.2,3.1,0.7c0.9,0.5,1.6,1.1,2.2,1.9c0.6,0.8,1,1.8,1.4,3c0.3,1.2,0.5,2.5,0.5,3.9c0,1.4-0.1,2.8-0.4,4.2
		c-0.3,1.4-0.7,2.8-1.2,4.2c-0.5,1.3-1.2,2.6-1.9,3.8c-0.8,1.2-1.6,2.2-2.6,3.1c-1,0.9-2,1.6-3.2,2.1s-2.4,0.8-3.7,0.8
		c-1.5,0-2.8-0.3-4-1s-2.2-1.6-3-2.9l-1.6,13h-2.5l4.4-36.4h1.2c0.6,0,0.9,0.3,0.9,1L743.6,254z M742.2,265.9c0.8,1.4,1.8,2.4,2.9,3
		c1.2,0.6,2.3,0.9,3.6,0.9c1.1,0,2.2-0.2,3.2-0.7s1.9-1.1,2.7-1.9c0.8-0.8,1.5-1.7,2.1-2.8c0.6-1.1,1.1-2.2,1.6-3.3
		c0.4-1.2,0.7-2.4,1-3.6c0.2-1.2,0.3-2.4,0.3-3.6c0-2.4-0.5-4.3-1.4-5.6c-0.9-1.3-2.3-2-4-2c-1,0-2.1,0.3-3.1,0.9
		c-1,0.6-2,1.4-3,2.4s-1.9,2.3-2.7,3.8c-0.8,1.5-1.6,3.1-2.2,4.9L742.2,265.9z"/>
	<path class="st0" d="M773,244.6l-3.3,26.9h-2.5l3.3-26.9H773z M775,235.3c0,0.3-0.1,0.6-0.2,0.9c-0.1,0.3-0.3,0.5-0.5,0.7
		c-0.2,0.2-0.5,0.4-0.7,0.5c-0.3,0.1-0.6,0.2-0.9,0.2c-0.3,0-0.6-0.1-0.9-0.2s-0.5-0.3-0.7-0.5c-0.2-0.2-0.4-0.5-0.5-0.7
		c-0.1-0.3-0.2-0.6-0.2-0.9s0.1-0.6,0.2-0.9c0.1-0.3,0.3-0.5,0.5-0.8s0.4-0.4,0.7-0.5s0.6-0.2,0.9-0.2c0.3,0,0.6,0.1,0.9,0.2
		c0.3,0.1,0.5,0.3,0.7,0.5c0.2,0.2,0.4,0.5,0.5,0.8S775,235,775,235.3z"/>
	<path class="st0" d="M782.9,253.5c0.7-1.8,1.5-3.3,2.4-4.6s1.8-2.3,2.8-3.1c1-0.8,2-1.2,3.1-1.4c1.1-0.2,2.1-0.1,3.2,0.4l-0.5,2.4
		c-1.2-0.5-2.4-0.6-3.5-0.3c-1.1,0.2-2.1,0.8-3.1,1.7c-1,0.9-1.9,2.1-2.7,3.7c-0.8,1.5-1.6,3.4-2.2,5.5l-1.6,13.7h-2.5l3.2-26.9h1.2
		c0.6,0,0.9,0.3,0.9,1L782.9,253.5z"/>
	<path class="st0" d="M814.6,266.5c-0.9,0.9-1.7,1.7-2.6,2.4c-0.8,0.7-1.7,1.2-2.5,1.7c-0.9,0.4-1.7,0.8-2.7,1s-1.9,0.3-2.9,0.3
		c-1.5,0-2.8-0.2-4-0.7c-1.2-0.5-2.1-1.2-2.9-2.1c-0.8-0.9-1.4-2-1.8-3.3s-0.6-2.8-0.6-4.4c0-1.4,0.1-2.7,0.4-4.1
		c0.3-1.4,0.7-2.7,1.2-3.9c0.5-1.3,1.2-2.4,2-3.5c0.8-1.1,1.7-2.1,2.7-2.9c1-0.8,2.1-1.4,3.3-1.9c1.2-0.5,2.5-0.7,4-0.7
		c1.3,0,2.4,0.2,3.3,0.6c0.9,0.4,1.6,0.8,2.2,1.4c0.6,0.5,1,1.1,1.2,1.8c0.3,0.6,0.4,1.2,0.4,1.8c0,0.7-0.1,1.4-0.3,2.1
		c-0.2,0.7-0.5,1.3-1.1,1.9c-0.5,0.6-1.2,1.2-2.1,1.7c-0.9,0.5-2,1-3.3,1.4c-1.3,0.4-2.9,0.8-4.8,1.2c-1.9,0.4-4.1,0.7-6.6,0.9
		c0,0.4-0.1,0.7-0.1,1.1c0,0.4,0,0.7,0,1.1c0,2.7,0.6,4.8,1.8,6.3c1.2,1.5,3,2.3,5.5,2.3c1,0,1.8-0.1,2.6-0.3
		c0.8-0.2,1.4-0.5,2.1-0.8c0.6-0.3,1.1-0.7,1.6-1c0.5-0.4,0.9-0.7,1.2-1c0.4-0.3,0.7-0.6,0.9-0.8c0.3-0.2,0.5-0.3,0.7-0.3
		c0.2,0,0.4,0.1,0.6,0.3L814.6,266.5z M807.9,246.1c-1.4,0-2.7,0.3-3.9,0.9c-1.2,0.6-2.2,1.4-3.1,2.4c-0.9,1-1.6,2.2-2.2,3.6
		c-0.6,1.3-1,2.7-1.3,4.2c2.3-0.3,4.3-0.5,5.9-0.9c1.7-0.3,3.1-0.7,4.2-1.1c1.2-0.4,2.1-0.8,2.8-1.2c0.7-0.4,1.3-0.9,1.7-1.3
		s0.6-0.9,0.8-1.4c0.1-0.5,0.2-1,0.2-1.5c0-0.4-0.1-0.8-0.3-1.2s-0.5-0.8-0.9-1.2c-0.4-0.4-0.9-0.7-1.6-0.9
		C809.7,246.2,808.9,246.1,807.9,246.1z"/>
	<path class="st0" d="M844.3,232.2l-4.8,39.3h-1.2c-0.4,0-0.6-0.1-0.7-0.3c-0.1-0.2-0.2-0.4-0.2-0.7l0.9-8.5c-0.7,1.5-1.5,2.8-2.4,4
		c-0.9,1.2-1.8,2.2-2.8,3.1c-1,0.9-2,1.5-3.1,2c-1.1,0.5-2.1,0.7-3.2,0.7c-1.2,0-2.2-0.2-3.1-0.7s-1.6-1.1-2.2-1.9
		c-0.6-0.8-1-1.8-1.4-3s-0.5-2.5-0.5-3.9c0-1.4,0.1-2.8,0.4-4.2c0.3-1.4,0.7-2.8,1.2-4.2c0.5-1.3,1.2-2.6,1.9-3.8
		c0.8-1.2,1.6-2.2,2.6-3.1c1-0.9,2-1.6,3.2-2.1s2.4-0.8,3.7-0.8c1.5,0,2.8,0.3,4,1c1.2,0.6,2.2,1.6,3,2.8l2-15.8H844.3z
		 M839.6,250.1c-0.4-0.7-0.8-1.3-1.3-1.8c-0.5-0.5-1-0.9-1.6-1.2s-1.1-0.5-1.8-0.6c-0.6-0.1-1.2-0.2-1.8-0.2c-1.1,0-2.2,0.2-3.2,0.7
		c-1,0.5-1.9,1.1-2.7,1.9c-0.8,0.8-1.5,1.7-2.1,2.8s-1.1,2.2-1.6,3.3c-0.4,1.2-0.7,2.4-1,3.6c-0.2,1.2-0.3,2.4-0.3,3.6
		c0,2.4,0.5,4.3,1.4,5.6s2.3,2,4,2c1,0,2.1-0.3,3.1-0.9s2-1.4,3-2.4s1.9-2.3,2.7-3.8c0.8-1.5,1.6-3.1,2.2-4.9L839.6,250.1z"/>
</g>
</svg>
